<?xml version="1.0" encoding="utf-8"?>
<!-- Generator: Adobe Illustrator 19.1.0, SVG Export Plug-In . SVG Version: 6.00 Build 0)  -->
<!DOCTYPE svg PUBLIC "-//W3C//DTD SVG 1.1//EN" "http://www.w3.org/Graphics/SVG/1.1/DTD/svg11.dtd">
<svg version="1.1" id="圖層_1" xmlns="http://www.w3.org/2000/svg" xmlns:xlink="http://www.w3.org/1999/xlink" x="0px" y="0px"
	 viewBox="-163 391.9 267.1 59" style="enable-background:new -163 391.9 267.1 59;" xml:space="preserve">
<style type="text/css">
	.st0{fill:#2D2E6C;}
	.st1{fill:#95D600;}
</style>
<g>
	<path class="st0" d="M-83.3,405.2l-24.1,44.9h-14.3l-3.9-26.7h-0.2l-14.8,26.7h-14.3l-8.1-44.9h14.2l2.9,28.3h0.2l16.1-28.3h14.3
		l3.3,28h0.2l14.3-27.9h14.2V405.2z"/>
	<path class="st1" d="M-8.4,437.1c-2.4,5-6.5,8.9-10.5,10.9s-9.1,2.9-15.2,2.9c-8.9,0-15.1-2-18.9-6c-3.7-4-5.6-8.9-5.6-14.7
		c0-4,0.9-7.8,2.6-11.3s4.1-6.5,7.1-8.9c3-2.4,5.9-4,8.8-4.8s6.3-1.2,10.2-1.2c8.4,0,14.4,1.8,18,5.5c3.6,3.6,5.5,8.1,5.5,13.4
		c0,1.7-0.4,4.8-1.1,9h-34.2c0.5,6,3.2,9,8.1,9c3.3,0,5.9-1.1,7.9-3.8H-8.4z M-23.5,423.5c0.2-0.6,0.3-1.5,0.3-2.6
		c0-2.3-0.7-4-2-5.2c-1.4-1.2-3.1-1.8-5.1-1.8c-2.1,0-4.1,0.8-5.8,2.4c-1.8,1.6-3.1,4-4.1,7.1L-23.5,423.5L-23.5,423.5z"/>
	<path class="st1" d="M53.7,391.9l-12.4,57.9H25.4l0.8-4.5l-0.2-0.2c-2.4,2.3-4.6,3.8-6.6,4.6s-4.3,1.2-7,1.2c-5.1,0-9-1.7-11.6-5.1
		c-2.7-3.4-4-7.9-4-13.6c0-7.6,2-14.2,6.1-19.9c4-5.7,9.2-8.5,15.3-8.5c6.3,0,11.1,2.4,14.3,7.1l4-19
		C36.5,391.9,53.7,391.9,53.7,391.9z M19.4,439.5c3.2,0,5.6-1.8,7.3-5.3c1.7-3.6,2.6-7.2,2.6-10.9c0-2.6-0.7-4.6-2-5.9
		c-1.3-1.3-2.9-2-4.6-2c-2.5,0-4.7,1.6-6.5,4.8s-2.7,7.1-2.7,11.6c0,2.5,0.5,4.5,1.6,5.8C16.2,438.9,17.6,439.5,19.4,439.5z"/>
	<path class="st1" d="M104.1,404.9l-9.6,44.8H78.3l1.6-6.9l-0.2-0.2c-4.7,5.4-10.4,8.1-17.3,8.1c-4.1,0-7.2-1.1-9.2-3.1
		c-2-2.1-3.1-4.6-3.1-7.6c0-1.9,0.6-5.7,1.8-11.2l5.2-24h17.2l-4.7,21.9c-0.7,3.2-1.1,5.1-1.2,5.6c-0.1,0.5-0.1,1.2-0.1,1.9v0.1
		c0,2.4,1.1,3.6,3.3,3.6c2.6,0,4.8-1.2,6.7-3.6c1.9-2.4,3.3-5.8,4.3-10.2l4.2-19.4h17.3V404.9z"/>
	<path class="st0" d="M-61,392.2l-1.7,8c-0.7,3.4-3.2,5-6.4,5h-11.4l-9.6,44.8h17.3l8.7-40.4c1.5-4.4,5.2-4.4,7.9-4.4h6.7l2.8-13.1
		H-61V392.2z"/>
</g>
</svg>
